<svg width="174" height="57" viewBox="0 0 174 57" fill="none" xmlns="http://www.w3.org/2000/svg">
<path d="M94.4651 46.9467C92.4911 45.248 90.5858 43.4346 88.7495 41.5065C86.959 39.5324 85.2834 37.5124 83.7225 35.4465C82.2075 33.3806 80.8073 31.2918 79.5218 29.1799C78.2823 27.0222 77.2264 24.9104 76.3541 22.8445C74.7932 24.5432 73.2323 26.2647 71.6714 28.0093C70.1564 29.7079 68.8021 31.4295 67.6085 33.174C66.4148 34.8726 65.4507 36.5942 64.7162 38.3388C63.9358 40.0374 63.5455 41.736 63.5455 43.4346C63.5455 45.4546 63.8898 47.1992 64.5785 48.6683C65.2212 50.0914 66.0935 51.2621 67.1953 52.1803C68.2971 53.0985 69.5596 53.7641 70.9828 54.1773C72.4059 54.5905 73.875 54.7971 75.39 54.7971C78.42 54.7971 81.6336 54.0855 85.0309 52.6623C88.4281 51.2391 91.5729 49.3339 94.4651 46.9467ZM85.9261 6.11075C85.9261 4.50394 85.5588 3.35622 84.8243 2.66758C84.1356 1.93304 83.3781 1.56577 82.5518 1.56577C81.8632 1.56577 81.1286 1.79532 80.3482 2.25441C79.6136 2.71349 78.925 3.37917 78.2823 4.25144C77.6854 5.0778 77.1805 6.08779 76.7673 7.28143C76.3541 8.47505 76.1475 9.78346 76.1475 11.2066C76.1475 13.8234 76.6295 16.6009 77.5936 19.5391C78.7414 18.3455 79.8202 17.1748 80.8302 16.0271C81.8402 14.8793 82.7125 13.7546 83.447 12.6528C84.2275 11.505 84.8243 10.4032 85.2375 9.34732C85.6965 8.24551 85.9261 7.16665 85.9261 6.11075ZM112.438 56.3809C112.438 56.5187 112.347 56.6564 112.163 56.7941C111.979 56.9318 111.704 57.0007 111.337 57.0007C108.582 56.1284 105.873 54.9119 103.211 53.351C100.548 51.7441 97.9542 49.8848 95.4292 47.773C93.6847 49.1044 91.8713 50.321 89.989 51.4228C88.1068 52.5246 86.1786 53.4657 84.2045 54.2462C82.2763 55.0266 80.3252 55.6234 78.3511 56.0366C76.423 56.4498 74.5637 56.6564 72.7732 56.6564C71.0287 56.6564 69.3759 56.4039 67.815 55.8989C66.2541 55.4398 64.8998 54.7282 63.7521 53.7641C62.6044 52.7541 61.7092 51.5146 61.0664 50.0455C60.3778 48.5764 60.0335 46.8549 60.0335 44.8808C60.0335 42.769 60.5155 40.7031 61.4796 38.6831C62.4437 36.6172 63.6833 34.5972 65.1982 32.6231C66.7132 30.649 68.3889 28.7209 70.2253 26.8386C72.1075 24.9563 73.9439 23.12 75.7343 21.3295C74.403 17.7486 73.7373 14.5121 73.7373 11.6198C73.7373 9.92118 74.0357 8.36028 74.6325 6.93711C75.2752 5.51393 76.0786 4.29735 77.0427 3.28735C78.0068 2.27736 79.0627 1.49691 80.2104 0.946005C81.4041 0.349189 82.5288 0.0507812 83.5847 0.0507812C84.8243 0.0507812 85.949 0.463961 86.959 1.29032C87.969 2.07077 88.474 3.37917 88.474 5.21553C88.474 6.36325 88.1756 7.55688 87.5788 8.79641C87.0279 10.036 86.2704 11.3214 85.3063 12.6528C84.3881 13.9382 83.2863 15.2925 82.0009 16.7157C80.7613 18.093 79.4529 19.5161 78.0757 20.9852C79.5907 25.1629 81.8402 29.4095 84.8243 33.7249C87.8543 37.9944 91.527 41.9885 95.8424 45.7071C98.1837 43.5953 100.066 41.2769 101.489 38.7519C102.912 36.227 103.624 33.5872 103.624 30.8327C103.624 29.9145 103.486 28.9963 103.211 28.0781C102.981 27.114 102.499 26.1041 101.765 25.0481C101.765 24.9563 101.902 24.8645 102.178 24.7727C102.453 24.635 102.706 24.5661 102.935 24.5661C103.578 24.5661 104.083 24.7956 104.45 25.2547C104.863 25.6679 105.162 26.1729 105.346 26.7697C105.575 27.3665 105.713 27.9863 105.759 28.629C105.851 29.2259 105.896 29.7079 105.896 30.0752C105.896 33.1051 105.047 36.0433 103.349 38.8897C101.696 41.6901 99.5381 44.261 96.8753 46.6024C101.329 50.4128 106.356 53.5116 111.956 55.8989C112.278 56.0825 112.438 56.2432 112.438 56.3809Z" fill="#FFA55C"/>
<path d="M13.9086 31.7912C13.9086 30.357 13.8161 29.1656 13.631 28.2172C13.4691 27.2688 13.2378 26.7945 12.9371 26.7945C12.752 26.7945 12.5785 26.9333 12.4166 27.2109C12.2546 27.4654 12.1158 27.8355 12.0002 28.3213C11.9077 28.7839 11.8267 29.3391 11.7573 29.9868C11.711 30.6114 11.6879 31.2938 11.6879 32.0341C11.6879 33.3526 11.7804 34.7753 11.9655 36.302C12.1505 37.8057 12.4744 39.263 12.9371 40.6741C13.2609 39.1936 13.5038 37.6784 13.6657 36.1285C13.8277 34.5555 13.9086 33.1097 13.9086 31.7912ZM28.4474 16.0379C28.4474 16.1536 28.4012 16.2461 28.3086 16.3155C28.2161 16.3849 28.1005 16.4659 27.9617 16.5584C27.2677 16.9748 26.7009 17.5531 26.2614 18.2933C25.8219 19.0336 25.4633 19.8432 25.1857 20.7222C24.9313 21.6013 24.7578 22.5035 24.6653 23.4288C24.5727 24.3309 24.5265 25.1637 24.5265 25.9271C24.5265 26.4591 24.5496 27.1184 24.5959 27.9049C24.6653 28.6683 24.7347 29.5126 24.8041 30.4379C24.8966 31.3632 24.966 32.3464 25.0123 33.3873C25.0817 34.4052 25.1164 35.4461 25.1164 36.5102C25.1164 38.0138 25.0238 39.4712 24.8388 40.8823C24.6768 42.2934 24.3414 43.5541 23.8325 44.6645C23.3467 45.7748 22.6643 46.6654 21.7853 47.3363C20.9062 48.0071 19.7612 48.3425 18.3501 48.3425C17.7024 48.3425 17.0893 48.2153 16.511 47.9608C15.9559 47.7295 15.4354 47.3941 14.9496 46.9546C14.4869 46.5151 14.059 46.0061 13.6657 45.4278C13.2956 44.8495 12.9602 44.2134 12.6595 43.5194C12.3587 44.329 12.0002 45.0808 11.5838 45.7748C11.1905 46.4688 10.751 47.0702 10.2652 47.5792C9.77945 48.0881 9.24741 48.4813 8.66909 48.7589C8.09078 49.0365 7.47776 49.1753 6.83005 49.1753C5.83535 49.1753 4.99101 48.9209 4.29704 48.4119C3.62619 47.903 3.07101 47.2322 2.63149 46.3994C2.19197 45.5898 1.84498 44.6645 1.59052 43.6235C1.3592 42.5594 1.1857 41.4837 1.07004 40.3965C0.954379 39.2861 0.873415 38.2105 0.827149 37.1695C0.804017 36.1054 0.780884 35.1685 0.757752 34.3589C0.711487 32.9015 0.734619 31.5252 0.827149 30.2297C0.942812 28.9112 1.07004 27.7314 1.20884 26.6904C1.34763 25.6264 1.48643 24.7126 1.62522 23.9492C1.76402 23.1859 1.85655 22.6191 1.90281 22.249C1.92595 22.1102 2.06474 22.0177 2.3192 21.9714C2.59679 21.9251 2.83968 21.902 3.04788 21.902C3.2098 21.902 3.3486 21.9251 3.46426 21.9714C3.57993 21.9945 3.63776 22.0639 3.63776 22.1796C3.63776 22.3184 3.57993 22.5613 3.46426 22.9083C3.3486 23.2321 3.17511 23.8567 2.94378 24.782C2.85125 25.1984 2.74715 25.7998 2.63149 26.5864C2.53896 27.3497 2.44643 28.2172 2.3539 29.1888C2.2845 30.1603 2.22667 31.2013 2.18041 32.3117C2.13414 33.3989 2.11101 34.463 2.11101 35.504C2.11101 36.3136 2.14571 37.2042 2.2151 38.1758C2.2845 39.1242 2.40016 40.0726 2.56209 41.0211C2.72402 41.9464 2.94378 42.8486 3.22137 43.7276C3.49896 44.6066 3.83438 45.3816 4.22764 46.0524C4.64402 46.7233 5.12981 47.2553 5.68499 47.6486C6.24017 48.0649 6.88788 48.2731 7.62813 48.2731C8.18331 48.2731 8.69222 48.1343 9.15488 47.8568C9.61753 47.5792 10.0455 47.1859 10.4387 46.677C10.832 46.1912 11.179 45.6129 11.4797 44.9421C11.8036 44.2712 12.0927 43.5425 12.3472 42.756C11.8151 41.2987 11.4219 39.7488 11.1674 38.1064C10.913 36.464 10.7857 34.9488 10.7857 33.5608C10.7857 32.543 10.8204 31.5367 10.8898 30.542C10.9823 29.5473 11.1096 28.6567 11.2715 27.8702C11.4334 27.0837 11.6416 26.4476 11.8961 25.9618C12.1505 25.476 12.4513 25.2331 12.7983 25.2331C13.0758 25.2331 13.3187 25.4066 13.5269 25.7536C13.7583 26.1006 13.9433 26.5748 14.0821 27.1762C14.244 27.7777 14.3597 28.4948 14.4291 29.3276C14.5216 30.1372 14.5679 31.0162 14.5679 31.9647C14.5679 33.4914 14.4638 35.0991 14.2556 36.7878C14.0474 38.4534 13.7236 40.0842 13.284 41.6804C13.5848 42.49 13.9318 43.2418 14.325 43.9358C14.7183 44.6066 15.1578 45.1965 15.6436 45.7054C16.1525 46.2143 16.7077 46.6076 17.3091 46.8852C17.9337 47.1859 18.6161 47.3363 19.3563 47.3363C20.3742 47.3363 21.2069 47.0818 21.8547 46.5729C22.5024 46.0871 23.0113 45.4163 23.3814 44.5604C23.7515 43.6813 24.006 42.6751 24.1448 41.5416C24.2836 40.3849 24.353 39.1473 24.353 37.8288C24.353 36.649 24.3067 35.4346 24.2142 34.1854C24.1448 32.9362 24.0638 31.6987 23.9713 30.4726C23.8788 29.2235 23.7862 28.0206 23.6937 26.8639C23.6243 25.6842 23.5896 24.597 23.5896 23.6023C23.5896 22.8851 23.6937 22.0524 23.9019 21.1039C24.1332 20.1555 24.4339 19.2649 24.8041 18.4321C25.1973 17.5762 25.6368 16.8591 26.1226 16.2808C26.6315 15.6793 27.1636 15.3786 27.7188 15.3786C27.8807 15.3786 28.0426 15.4596 28.2046 15.6215C28.3665 15.7603 28.4474 15.8991 28.4474 16.0379Z" fill="#1F1711"/>
<path d="M39.2819 39.0779C39.2819 38.731 39.2241 38.4534 39.1084 38.2452C38.9927 38.0138 38.8077 37.8982 38.5532 37.8982C38.16 37.8982 37.8592 38.0948 37.651 38.4881C37.4428 38.8582 37.3503 39.3324 37.3735 39.9107C37.4428 41.1367 37.6626 42.1661 38.0327 42.9989C38.426 42.4669 38.7267 41.8654 38.9349 41.1946C39.1662 40.5237 39.2819 39.8182 39.2819 39.0779ZM48.6506 39.0432C48.4886 39.3902 48.3152 39.7488 48.1301 40.1189C47.945 40.4659 47.7368 40.8129 47.5055 41.1599C46.3258 42.918 45.1344 44.2249 43.9315 45.0808C42.7286 45.9368 41.6067 46.3647 40.5657 46.3647C39.2472 46.3647 38.2409 45.7401 37.5469 44.491C36.7373 45.3006 35.8236 45.9136 34.8057 46.33C33.811 46.7464 32.8279 46.9546 31.8563 46.9546C31.278 46.9546 30.7228 46.8736 30.1908 46.7117C29.6819 46.5498 29.2424 46.3069 28.8722 45.983C28.479 45.636 28.1667 45.2081 27.9354 44.6992C27.704 44.1671 27.5884 43.5541 27.5884 42.8601C27.5884 42.0273 27.785 41.183 28.1783 40.3271C28.5484 39.4481 29.0689 38.6616 29.7397 37.9676C30.4337 37.2505 31.2433 36.6606 32.1686 36.1979C33.0939 35.7353 34.1002 35.504 35.1874 35.504C36.0665 35.504 36.7489 35.6312 37.2347 35.8856C37.7204 36.117 37.9633 36.3367 37.9633 36.5449C37.9633 36.6375 37.9171 36.7069 37.8245 36.7531C37.732 36.7994 37.651 36.8225 37.5816 36.8225C37.5585 36.7994 37.5354 36.7878 37.5122 36.7878H37.4775C37.2 36.5334 36.8877 36.3367 36.5407 36.1979C36.1937 36.036 35.6848 35.955 35.0139 35.955C34.1118 35.955 33.2906 36.1517 32.5503 36.5449C31.8332 36.915 31.2202 37.4124 30.7113 38.037C30.2024 38.6384 29.8091 39.3093 29.5315 40.0495C29.2539 40.7898 29.1151 41.5184 29.1151 42.2355C29.1151 43.6235 29.439 44.6298 30.0867 45.2543C30.7344 45.8789 31.544 46.1912 32.5156 46.1912C33.3021 46.1912 34.1233 45.9946 34.9792 45.6013C35.8351 45.2081 36.5985 44.6529 37.2694 43.9358C36.8992 43.103 36.7142 42.0158 36.7142 40.6741C36.7142 39.7951 36.8761 39.0317 37.2 38.384C37.5238 37.7363 37.9865 37.4124 38.5879 37.4124C39.4207 37.4124 39.8371 37.8982 39.8371 38.8698C39.8371 39.8413 39.6983 40.7204 39.4207 41.5069C39.1431 42.2702 38.773 42.9642 38.3103 43.5888C38.958 44.7917 39.8602 45.3931 41.0168 45.3931C41.8959 45.3931 42.8327 45.023 43.8274 44.2828C44.8453 43.5425 45.84 42.4669 46.8115 41.0558C47.0429 40.7088 47.2511 40.3502 47.4361 39.9801C47.6212 39.61 47.8062 39.2399 47.9913 38.8698L48.6506 39.0432Z" fill="#1F1711"/>
<path d="M53.4702 23.5329C53.4702 22.2143 53.2504 21.1618 52.8109 20.3753C52.3945 19.5656 51.689 19.1608 50.6943 19.1608C50.3473 19.1608 50.0234 19.2765 49.7227 19.5078C49.4451 19.716 49.2022 20.0051 48.994 20.3753C48.7859 20.7454 48.6239 21.1733 48.5083 21.6591C48.3926 22.1449 48.3348 22.6654 48.3348 23.2206C48.3348 24.7473 48.3463 26.1353 48.3695 27.3844C48.3926 28.6336 48.4157 29.8133 48.4389 30.9237C48.4851 32.0341 48.5314 33.1097 48.5777 34.1507C48.6239 35.1917 48.6702 36.2558 48.7165 37.343C49.3873 36.4408 50.0119 35.4114 50.5902 34.2548C51.1685 33.075 51.6659 31.8721 52.0822 30.6461C52.5218 29.397 52.8572 28.1594 53.0885 26.9333C53.343 25.7073 53.4702 24.5738 53.4702 23.5329ZM66.0312 39.0432C65.8693 39.3902 65.6958 39.7488 65.5107 40.1189C65.3488 40.489 65.1406 40.836 64.8861 41.1599C63.6138 42.9642 62.168 44.3869 60.5488 45.4278C58.9295 46.4457 57.3218 46.9546 55.7256 46.9546C54.7309 46.9546 53.7825 46.7233 52.8803 46.2606C51.9781 45.8211 51.1801 45.104 50.4861 44.1093C50.3936 43.9936 50.3473 43.8895 50.3473 43.797C50.3473 43.5888 50.4861 43.4847 50.7637 43.4847C50.7868 43.4847 50.8678 43.5078 51.0066 43.5541C51.1916 43.5541 51.3998 43.6235 51.6312 43.7623C51.8856 43.878 52.2442 43.9358 52.7068 43.9358C53.4239 43.9358 54.0948 43.8086 54.7194 43.5541C55.3439 43.2996 55.876 42.9758 56.3155 42.5825C56.7782 42.1661 57.1367 41.7035 57.3912 41.1946C57.6456 40.6625 57.7729 40.1189 57.7729 39.5637C57.7729 38.8698 57.5878 38.2683 57.2177 37.7594C56.8707 37.2505 56.2692 36.996 55.4133 36.996C54.5343 36.996 53.7247 37.3083 52.9844 37.9329C52.2442 38.5343 51.5733 39.2746 50.9719 40.1536C50.3936 41.0095 49.8962 41.9232 49.4798 42.8948C49.0634 43.8433 48.7512 44.676 48.543 45.3931C48.4273 45.7864 48.3232 46.0293 48.2307 46.1218C48.1381 46.2143 48.034 46.2606 47.9184 46.2606C47.6639 46.2606 47.5483 46.0177 47.5714 45.5319C47.5714 45.3237 47.583 45.0693 47.6061 44.7686C47.6292 44.4678 47.6524 44.144 47.6755 43.797C47.6755 43.45 47.6871 43.103 47.7102 42.756C47.7333 42.3859 47.7449 42.0505 47.7449 41.7498C47.7449 40.7088 47.7218 39.5175 47.6755 38.1758C47.6292 36.811 47.5714 35.4114 47.502 33.9772C47.4326 32.5199 47.3748 31.0741 47.3285 29.6399C47.2822 28.2056 47.2591 26.8871 47.2591 25.6842C47.2591 24.7357 47.3285 23.822 47.4673 22.943C47.6061 22.0408 47.8258 21.2543 48.1266 20.5835C48.4273 19.8895 48.809 19.3459 49.2716 18.9526C49.7343 18.5362 50.2779 18.328 50.9025 18.328C51.5502 18.328 52.0938 18.4437 52.5333 18.675C52.996 18.8832 53.3661 19.1955 53.6437 19.6119C53.9213 20.0051 54.1179 20.4909 54.2336 21.0692C54.3724 21.6244 54.4418 22.2374 54.4418 22.9083C54.4418 24.0649 54.2798 25.3372 53.956 26.7251C53.6321 28.09 53.2042 29.4664 52.6721 30.8543C52.1401 32.2423 51.5271 33.584 50.8331 34.8794C50.1622 36.1517 49.4683 37.262 48.7512 38.2105C48.7974 38.9044 48.8206 39.6216 48.8206 40.3618C48.8437 41.102 48.8784 41.8886 48.9246 42.7213C49.503 41.4722 50.1391 40.3965 50.8331 39.4943C51.1338 39.1011 51.4692 38.7194 51.8393 38.3493C52.2326 37.956 52.6374 37.609 53.0538 37.3083C53.4933 37.0076 53.956 36.7647 54.4418 36.5796C54.9507 36.3946 55.4827 36.302 56.0379 36.302C56.917 36.302 57.6803 36.5218 58.328 36.9613C58.9758 37.4008 59.2996 38.1064 59.2996 39.0779C59.2996 40.0032 59.0683 40.7898 58.6056 41.4375C58.1661 42.0852 57.6109 42.6288 56.9401 43.0683C56.2692 43.4847 55.5521 43.797 54.7888 44.0052C54.0254 44.2134 53.3314 44.3406 52.7068 44.3869C52.6606 44.3869 52.6374 44.3984 52.6374 44.4216C52.6374 44.4678 52.6721 44.5372 52.7415 44.6298C53.2042 45.1618 53.7247 45.5435 54.303 45.7748C54.8813 46.0061 55.4827 46.1218 56.1073 46.1218C56.8707 46.1218 57.6456 45.983 58.4321 45.7054C59.2186 45.4047 59.9705 45.023 60.6876 44.5604C61.4047 44.0746 62.064 43.531 62.6654 42.9295C63.29 42.3049 63.7989 41.6804 64.1921 41.0558C64.4235 40.7088 64.6317 40.3502 64.8167 39.9801C65.0018 39.61 65.1868 39.2399 65.3719 38.8698L66.0312 39.0432Z" fill="#1F1711"/>
<path d="M70.9229 36.8919C70.9229 36.2673 70.761 35.7584 70.4371 35.3652C70.1364 34.9488 69.6391 34.7406 68.9451 34.7406C68.575 34.7406 68.2395 34.8562 67.9388 35.0876C67.6381 35.3189 67.3836 35.6312 67.1754 36.0244C66.9672 36.3946 66.8053 36.8341 66.6896 37.343C66.574 37.8519 66.5162 38.384 66.5162 38.9391C66.5162 39.8182 66.6087 40.6047 66.7937 41.2987C67.0019 41.9695 67.2911 42.5594 67.6612 43.0683C68.147 42.6751 68.5865 42.224 68.9798 41.7151C69.373 41.2061 69.7084 40.6741 69.986 40.1189C70.2868 39.5637 70.5181 39.0085 70.68 38.4534C70.8419 37.8982 70.9229 37.3777 70.9229 36.8919ZM79.7017 39.0432C79.5398 39.3902 79.3663 39.7488 79.1812 40.1189C79.0193 40.4659 78.8111 40.8129 78.5567 41.1599C77.4232 42.7792 76.1277 44.0052 74.6704 44.838C73.2362 45.6476 71.8598 46.0524 70.5412 46.0524C69.801 46.0524 69.107 45.9252 68.4593 45.6707C67.8347 45.4163 67.2911 45.0346 66.8284 44.5257C66.3658 44.0167 65.9957 43.3806 65.7181 42.6172C65.4405 41.8539 65.3017 40.9517 65.3017 39.9107C65.3017 39.2167 65.4058 38.5228 65.614 37.8288C65.8222 37.1348 66.0998 36.5102 66.4468 35.955C66.8169 35.3999 67.2333 34.9488 67.6959 34.6018C68.1817 34.2548 68.6906 34.0813 69.2227 34.0813C70.0786 34.0813 70.7032 34.3358 71.0964 34.8447C71.4897 35.3305 71.6863 35.955 71.6863 36.7184C71.6863 37.7594 71.3624 38.8929 70.7147 40.1189C70.0901 41.3218 69.188 42.4437 68.0082 43.4847C68.8872 44.4794 70.0207 44.9767 71.4087 44.9767C72.4497 44.9767 73.5369 44.6645 74.6704 44.0399C75.8039 43.3922 76.868 42.3975 77.8627 41.0558C78.1171 40.7319 78.3253 40.3849 78.4873 40.0148C78.6723 39.6216 78.8574 39.2399 79.0424 38.8698L79.7017 39.0432Z" fill="#1F1711"/>
<path d="M109.763 30.2991C108.907 30.2991 108.086 30.3917 107.3 30.5767C106.536 30.7618 105.854 30.9815 105.253 31.236C104.674 31.4905 104.2 31.7565 103.83 32.0341C103.483 32.3117 103.309 32.5546 103.309 32.7628C103.309 33.0403 103.633 33.1791 104.281 33.1791C105.391 33.1791 106.444 32.9131 107.439 32.3811C108.456 31.849 109.37 31.155 110.18 30.2991H109.763ZM119.861 35.504C119.861 36.6375 119.537 37.8635 118.889 39.182C118.265 40.5006 117.397 41.8076 116.287 43.103C115.176 44.3984 113.858 45.6476 112.331 46.8505C110.804 48.0534 109.162 49.1175 107.404 50.0428C105.646 50.9681 103.795 51.6968 101.852 52.2288C99.9089 52.784 97.9658 53.0616 96.0227 53.0616C95.6988 53.0616 95.3402 53.05 94.947 53.0269C94.5769 53.0038 94.2299 52.9459 93.906 52.8534C93.5822 52.784 93.3046 52.6568 93.0733 52.4717C92.8419 52.3098 92.7263 52.0784 92.7263 51.7777C92.7263 51.3613 92.9345 50.9565 93.3508 50.5633C93.7672 50.1931 94.2993 49.8462 94.947 49.5223C95.5947 49.1984 96.3003 48.9093 97.0636 48.6548C97.827 48.4004 98.5557 48.1806 99.2496 47.9956C99.9668 47.8105 100.591 47.6601 101.123 47.5445C101.655 47.4519 102.014 47.4057 102.199 47.4057C102.338 47.4057 102.442 47.4404 102.511 47.5098C102.581 47.5792 102.615 47.6486 102.615 47.718C102.615 47.8336 102.558 47.8915 102.442 47.8915H101.991C101.389 47.8915 100.626 48.0071 99.7007 48.2384C98.7754 48.4698 97.8733 48.7589 96.9942 49.1059C96.1152 49.4529 95.3634 49.8346 94.7388 50.251C94.1142 50.6905 93.8019 51.0953 93.8019 51.4654C93.8019 51.7199 93.8829 51.9165 94.0448 52.0553C94.2299 52.2172 94.4496 52.3445 94.7041 52.437C94.9586 52.5295 95.2246 52.5874 95.5022 52.6105C95.7798 52.6568 96.0227 52.6799 96.2308 52.6799C97.8733 52.6799 99.5504 52.4023 101.262 51.8471C102.997 51.2919 104.674 50.5517 106.294 49.6264C107.936 48.7242 109.474 47.6717 110.908 46.4688C112.366 45.289 113.638 44.063 114.725 42.7907C115.813 41.4953 116.668 40.2114 117.293 38.9391C117.918 37.6437 118.23 36.4408 118.23 35.3305C118.23 33.9656 117.663 32.8321 116.53 31.93C115.419 31.0047 113.58 30.4726 111.013 30.3338C109.972 31.3054 108.827 32.0919 107.577 32.6934C106.351 33.2948 105.102 33.5955 103.83 33.5955C102.928 33.5955 102.477 33.3758 102.477 32.9362C102.477 32.6587 102.662 32.3464 103.032 31.9994C103.425 31.6293 103.957 31.2823 104.628 30.9584C105.322 30.6346 106.143 30.3685 107.092 30.1603C108.04 29.929 109.081 29.8133 110.214 29.8133H110.631C111.394 28.9112 112.007 27.928 112.47 26.8639C112.933 25.7767 113.164 24.7126 113.164 23.6717C113.164 22.9777 113.037 22.3184 112.782 21.6938C112.551 21.0461 112.158 20.4909 111.602 20.0283C111.07 19.5656 110.365 19.1955 109.486 18.9179C108.63 18.6403 107.589 18.5015 106.363 18.5015C105.53 18.5015 104.374 18.6172 102.893 18.8485C101.436 19.0798 99.8511 19.4384 98.1393 19.9242C96.4506 20.3868 94.7272 20.9767 92.9692 21.6938C91.2111 22.4109 89.6149 23.2437 88.1807 24.1921C86.7465 25.1406 85.5783 26.2162 84.6761 27.4191C83.774 28.622 83.3229 29.9521 83.3229 31.4095C83.3229 31.5946 83.2882 31.7565 83.2188 31.8953C83.1494 32.0109 83.08 32.0688 83.0106 32.0688C82.918 32.0688 82.8487 31.9762 82.8024 31.7912C82.733 31.583 82.6983 31.2476 82.6983 30.7849C82.9065 29.2813 83.5195 27.9165 84.5373 26.6904C85.5552 25.4644 86.8159 24.3772 88.3195 23.4288C89.8 22.4572 91.4308 21.6244 93.212 20.9304C94.9933 20.2365 96.7513 19.6697 98.4863 19.2302C100.244 18.7675 101.875 18.4321 103.379 18.2239C104.906 17.9926 106.155 17.8769 107.126 17.8769C108.537 17.8769 109.729 18.0157 110.7 18.2933C111.695 18.5478 112.505 18.9063 113.129 19.369C113.754 19.8085 114.205 20.3406 114.482 20.9651C114.76 21.5897 114.899 22.249 114.899 22.943C114.899 24.0765 114.587 25.2562 113.962 26.4823C113.361 27.6852 112.539 28.8071 111.498 29.848C112.979 29.9174 114.251 30.1141 115.315 30.4379C116.379 30.7387 117.247 31.1435 117.918 31.6524C118.588 32.1382 119.074 32.7165 119.375 33.3873C119.699 34.035 119.861 34.7406 119.861 35.504ZM101.47 44.6298C101.47 44.9536 101.447 45.1849 101.401 45.3237C101.355 45.4625 101.227 45.5319 101.019 45.5319C100.557 45.5782 100.325 45.1155 100.325 44.144C100.302 40.9517 100.267 38.037 100.221 35.3999C100.198 32.7627 100.163 30.4842 100.117 28.5642C100.094 26.6211 100.071 25.0827 100.048 23.9492C100.025 22.8157 100.013 22.168 100.013 22.0061C100.013 21.821 100.071 21.6938 100.187 21.6244C100.302 21.555 100.441 21.4972 100.603 21.4509C100.788 21.4509 100.927 21.5088 101.019 21.6244C101.135 21.7401 101.193 21.8789 101.193 22.0408C101.193 23.8914 101.204 25.7998 101.227 27.7661C101.251 29.7093 101.274 31.6524 101.297 33.5955C101.343 35.5387 101.378 37.4471 101.401 39.3208C101.447 41.1946 101.47 42.9642 101.47 44.6298Z" fill="#1F1711"/>
<path d="M133.348 39.0779C133.348 38.731 133.29 38.4534 133.175 38.2452C133.059 38.0138 132.874 37.8982 132.62 37.8982C132.226 37.8982 131.926 38.0948 131.717 38.4881C131.509 38.8582 131.417 39.3324 131.44 39.9107C131.509 41.1367 131.729 42.1661 132.099 42.9989C132.492 42.4669 132.793 41.8654 133.001 41.1946C133.233 40.5237 133.348 39.8182 133.348 39.0779ZM142.717 39.0432C142.555 39.3902 142.382 39.7488 142.197 40.1189C142.011 40.4659 141.803 40.8129 141.572 41.1599C140.392 42.918 139.201 44.2249 137.998 45.0808C136.795 45.9368 135.673 46.3647 134.632 46.3647C133.314 46.3647 132.307 45.7401 131.613 44.491C130.804 45.3006 129.89 45.9136 128.872 46.33C127.877 46.7464 126.894 46.9546 125.923 46.9546C125.344 46.9546 124.789 46.8736 124.257 46.7117C123.748 46.5498 123.309 46.3069 122.939 45.983C122.545 45.636 122.233 45.2081 122.002 44.6992C121.77 44.1671 121.655 43.5541 121.655 42.8601C121.655 42.0273 121.851 41.183 122.245 40.3271C122.615 39.4481 123.135 38.6616 123.806 37.9676C124.5 37.2505 125.31 36.6606 126.235 36.1979C127.16 35.7353 128.167 35.504 129.254 35.504C130.133 35.504 130.815 35.6312 131.301 35.8856C131.787 36.117 132.03 36.3367 132.03 36.5449C132.03 36.6375 131.984 36.7069 131.891 36.7531C131.798 36.7994 131.717 36.8225 131.648 36.8225C131.625 36.7994 131.602 36.7878 131.579 36.7878H131.544C131.266 36.5334 130.954 36.3367 130.607 36.1979C130.26 36.036 129.751 35.955 129.08 35.955C128.178 35.955 127.357 36.1517 126.617 36.5449C125.9 36.915 125.287 37.4124 124.778 38.037C124.269 38.6384 123.876 39.3093 123.598 40.0495C123.32 40.7898 123.182 41.5184 123.182 42.2355C123.182 43.6235 123.505 44.6298 124.153 45.2543C124.801 45.8789 125.61 46.1912 126.582 46.1912C127.369 46.1912 128.19 45.9946 129.046 45.6013C129.902 45.2081 130.665 44.6529 131.336 43.9358C130.966 43.103 130.781 42.0158 130.781 40.6741C130.781 39.7951 130.943 39.0317 131.266 38.384C131.59 37.7363 132.053 37.4124 132.654 37.4124C133.487 37.4124 133.904 37.8982 133.904 38.8698C133.904 39.8413 133.765 40.7204 133.487 41.5069C133.21 42.2702 132.839 42.9642 132.377 43.5888C133.024 44.7917 133.927 45.3931 135.083 45.3931C135.962 45.3931 136.899 45.023 137.894 44.2828C138.912 43.5425 139.906 42.4669 140.878 41.0558C141.109 40.7088 141.317 40.3502 141.503 39.9801C141.688 39.61 141.873 39.2399 142.058 38.8698L142.717 39.0432Z" fill="#1F1711"/>
<path d="M147.537 23.5329C147.537 22.2143 147.317 21.1618 146.877 20.3753C146.461 19.5656 145.755 19.1608 144.761 19.1608C144.414 19.1608 144.09 19.2765 143.789 19.5078C143.512 19.716 143.269 20.0051 143.06 20.3753C142.852 20.7454 142.69 21.1733 142.575 21.6591C142.459 22.1449 142.401 22.6654 142.401 23.2206C142.401 24.7473 142.413 26.1353 142.436 27.3844C142.459 28.6336 142.482 29.8133 142.505 30.9237C142.552 32.0341 142.598 33.1097 142.644 34.1507C142.69 35.1917 142.737 36.2558 142.783 37.343C143.454 36.4408 144.078 35.4114 144.657 34.2548C145.235 33.075 145.732 31.8721 146.149 30.6461C146.588 29.397 146.924 28.1594 147.155 26.9333C147.409 25.7073 147.537 24.5738 147.537 23.5329ZM160.098 39.0432C159.936 39.3902 159.762 39.7488 159.577 40.1189C159.415 40.489 159.207 40.836 158.953 41.1599C157.68 42.9642 156.234 44.3869 154.615 45.4278C152.996 46.4457 151.388 46.9546 149.792 46.9546C148.797 46.9546 147.849 46.7233 146.947 46.2606C146.045 45.8211 145.247 45.104 144.553 44.1093C144.46 43.9936 144.414 43.8895 144.414 43.797C144.414 43.5888 144.553 43.4847 144.83 43.4847C144.853 43.4847 144.934 43.5078 145.073 43.5541C145.258 43.5541 145.466 43.6235 145.698 43.7623C145.952 43.878 146.311 43.9358 146.773 43.9358C147.49 43.9358 148.161 43.8086 148.786 43.5541C149.41 43.2996 149.942 42.9758 150.382 42.5825C150.845 42.1661 151.203 41.7035 151.458 41.1946C151.712 40.6625 151.839 40.1189 151.839 39.5637C151.839 38.8698 151.654 38.2683 151.284 37.7594C150.937 37.2505 150.336 36.996 149.48 36.996C148.601 36.996 147.791 37.3083 147.051 37.9329C146.311 38.5343 145.64 39.2746 145.038 40.1536C144.46 41.0095 143.963 41.9232 143.546 42.8948C143.13 43.8433 142.818 44.676 142.609 45.3931C142.494 45.7864 142.39 46.0293 142.297 46.1218C142.205 46.2143 142.1 46.2606 141.985 46.2606C141.73 46.2606 141.615 46.0177 141.638 45.5319C141.638 45.3237 141.649 45.0693 141.673 44.7686C141.696 44.4678 141.719 44.144 141.742 43.797C141.742 43.45 141.753 43.103 141.777 42.756C141.8 42.3859 141.811 42.0505 141.811 41.7498C141.811 40.7088 141.788 39.5175 141.742 38.1758C141.696 36.811 141.638 35.4114 141.568 33.9772C141.499 32.5199 141.441 31.0741 141.395 29.6399C141.349 28.2056 141.326 26.8871 141.326 25.6842C141.326 24.7357 141.395 23.822 141.534 22.943C141.673 22.0408 141.892 21.2543 142.193 20.5835C142.494 19.8895 142.875 19.3459 143.338 18.9526C143.801 18.5362 144.344 18.328 144.969 18.328C145.617 18.328 146.16 18.4437 146.6 18.675C147.062 18.8832 147.433 19.1955 147.71 19.6119C147.988 20.0051 148.184 20.4909 148.3 21.0692C148.439 21.6244 148.508 22.2374 148.508 22.9083C148.508 24.0649 148.346 25.3372 148.022 26.7251C147.699 28.09 147.271 29.4664 146.739 30.8543C146.207 32.2423 145.593 33.584 144.9 34.8794C144.229 36.1517 143.535 37.262 142.818 38.2105C142.864 38.9044 142.887 39.6216 142.887 40.3618C142.91 41.102 142.945 41.8886 142.991 42.7213C143.569 41.4722 144.206 40.3965 144.9 39.4943C145.2 39.1011 145.536 38.7194 145.906 38.3493C146.299 37.956 146.704 37.609 147.12 37.3083C147.56 37.0076 148.022 36.7647 148.508 36.5796C149.017 36.3946 149.549 36.302 150.104 36.302C150.983 36.302 151.747 36.5218 152.394 36.9613C153.042 37.4008 153.366 38.1064 153.366 39.0779C153.366 40.0032 153.135 40.7898 152.672 41.4375C152.233 42.0852 151.677 42.6288 151.007 43.0683C150.336 43.4847 149.619 43.797 148.855 44.0052C148.092 44.2134 147.398 44.3406 146.773 44.3869C146.727 44.3869 146.704 44.3984 146.704 44.4216C146.704 44.4678 146.739 44.5372 146.808 44.6298C147.271 45.1618 147.791 45.5435 148.369 45.7748C148.948 46.0061 149.549 46.1218 150.174 46.1218C150.937 46.1218 151.712 45.983 152.499 45.7054C153.285 45.4047 154.037 45.023 154.754 44.5604C155.471 44.0746 156.13 43.531 156.732 42.9295C157.356 42.3049 157.865 41.6804 158.259 41.0558C158.49 40.7088 158.698 40.3502 158.883 39.9801C159.068 39.61 159.253 39.2399 159.438 38.8698L160.098 39.0432Z" fill="#1F1711"/>
<path d="M164.989 36.8919C164.989 36.2673 164.827 35.7584 164.504 35.3652C164.203 34.9488 163.705 34.7406 163.012 34.7406C162.641 34.7406 162.306 34.8562 162.005 35.0876C161.705 35.3189 161.45 35.6312 161.242 36.0244C161.034 36.3946 160.872 36.8341 160.756 37.343C160.64 37.8519 160.583 38.384 160.583 38.9391C160.583 39.8182 160.675 40.6047 160.86 41.2987C161.068 41.9695 161.358 42.5594 161.728 43.0683C162.213 42.6751 162.653 42.224 163.046 41.7151C163.439 41.2061 163.775 40.6741 164.052 40.1189C164.353 39.5637 164.585 39.0085 164.746 38.4534C164.908 37.8982 164.989 37.3777 164.989 36.8919ZM173.768 39.0432C173.606 39.3902 173.433 39.7488 173.248 40.1189C173.086 40.4659 172.878 40.8129 172.623 41.1599C171.49 42.7792 170.194 44.0052 168.737 44.838C167.303 45.6476 165.926 46.0524 164.608 46.0524C163.867 46.0524 163.173 45.9252 162.526 45.6707C161.901 45.4163 161.358 45.0346 160.895 44.5257C160.432 44.0167 160.062 43.3806 159.785 42.6172C159.507 41.8539 159.368 40.9517 159.368 39.9107C159.368 39.2167 159.472 38.5228 159.68 37.8288C159.889 37.1348 160.166 36.5102 160.513 35.955C160.883 35.3999 161.3 34.9488 161.762 34.6018C162.248 34.2548 162.757 34.0813 163.289 34.0813C164.145 34.0813 164.77 34.3358 165.163 34.8447C165.556 35.3305 165.753 35.955 165.753 36.7184C165.753 37.7594 165.429 38.8929 164.781 40.1189C164.157 41.3218 163.254 42.4437 162.075 43.4847C162.954 44.4794 164.087 44.9767 165.475 44.9767C166.516 44.9767 167.603 44.6645 168.737 44.0399C169.87 43.3922 170.934 42.3975 171.929 41.0558C172.184 40.7319 172.392 40.3849 172.554 40.0148C172.739 39.6216 172.924 39.2399 173.109 38.8698L173.768 39.0432Z" fill="#1F1711"/>
</svg>
